<?xml version="1.0" encoding="UTF-8"?>
<svg width="378px" height="378px" viewBox="0 0 378 378" version="1.1" xmlns="http://www.w3.org/2000/svg" xmlns:xlink="http://www.w3.org/1999/xlink">
    <title>landscape-mode</title>
    <g id="landscape-mode" stroke="none" stroke-width="1" fill="none" fill-rule="evenodd">
        <g id="Group-2" transform="translate(58, 1)">
            <rect id="Rectangle" stroke="#000000" stroke-width="20" x="40" y="62" width="182" height="252" rx="16"></rect>
            <g id="Group" transform="translate(173, 0)">
                <path d="M24,22 C41.9492544,22 58.1992544,29.2753728 69.9619408,41.0380592 C81.7246272,52.8007456 89,69.0507456 89,87" id="Oval" stroke="#000000" stroke-width="16" stroke-linecap="round"></path>
                <path d="M34,7.35257805 L34,36.6474219 C34,38.8565609 32.209139,40.6474219 30,40.6474219 C29.2289548,40.6474219 28.4743414,40.4245739 27.8269949,40.0057026 L5.19007006,25.3582806 C3.33534289,24.158163 2.80467696,21.6817221 4.00479455,19.8269949 C4.31173979,19.352625 4.71570014,18.9486646 5.19007006,18.6417194 L27.8269949,3.99429743 C29.6817221,2.79417984 32.158163,3.32484577 33.3582806,5.17957294 C33.7771519,5.82691949 34,6.58153284 34,7.35257805 Z" id="Rectangle" fill="#000000"></path>
            </g>
            <g id="Group-Copy" transform="translate(44.5, 333.5) scale(-1, -1) translate(-44.5, -333.5)translate(0, 290)">
                <path d="M24,22 C41.9492544,22 58.1992544,29.2753728 69.9619408,41.0380592 C81.7246272,52.8007456 89,69.0507456 89,87" id="Oval" stroke="#000000" stroke-width="16" stroke-linecap="round"></path>
                <path d="M34,7.35257805 L34,36.6474219 C34,38.8565609 32.209139,40.6474219 30,40.6474219 C29.2289548,40.6474219 28.4743414,40.4245739 27.8269949,40.0057026 L5.19007006,25.3582806 C3.33534289,24.158163 2.80467696,21.6817221 4.00479455,19.8269949 C4.31173979,19.352625 4.71570014,18.9486646 5.19007006,18.6417194 L27.8269949,3.99429743 C29.6817221,2.79417984 32.158163,3.32484577 33.3582806,5.17957294 C33.7771519,5.82691949 34,6.58153284 34,7.35257805 Z" id="Rectangle" fill="#000000"></path>
            </g>
            <circle id="Oval" stroke="#000000" stroke-width="12" cx="131" cy="271" r="12"></circle>
        </g>
    </g>
</svg>